<mxfile host="Electron" modified="2024-03-01T00:38:39.438Z" agent="Mozilla/5.0 (Windows NT 10.0; Win64; x64) AppleWebKit/537.36 (KHTML, like Gecko) draw.io/23.1.5 Chrome/120.0.6099.109 Electron/28.1.0 Safari/537.36" etag="bu0niMS7g_ceQTa-9kGb" version="23.1.5" type="device">
  <diagram name="Page-1" id="0SB8Nl1PpEHwA0uCV52o">
    <mxGraphModel dx="1434" dy="836" grid="1" gridSize="10" guides="1" tooltips="1" connect="1" arrows="1" fold="1" page="1" pageScale="1" pageWidth="1169" pageHeight="827" math="0" shadow="0">
      <root>
        <mxCell id="0" />
        <mxCell id="1" parent="0" />
        <mxCell id="z2CHQpgufFifvv1Qfl7E-5" style="edgeStyle=orthogonalEdgeStyle;rounded=0;orthogonalLoop=1;jettySize=auto;html=1;exitX=0.5;exitY=0;exitDx=0;exitDy=0;strokeWidth=3;targetPerimeterSpacing=0;sourcePerimeterSpacing=0;endSize=6;curved=0;fontFamily=Trebuchet MS;spacing=2;jumpStyle=sharp;jumpSize=6;shadow=0;fontSize=18;" parent="1" source="ZIqmXXqL1ILBx22d_BI0-1" edge="1">
          <mxGeometry relative="1" as="geometry">
            <mxPoint x="788" y="351" as="targetPoint" />
            <Array as="points">
              <mxPoint x="728" y="351" />
              <mxPoint x="788" y="351" />
            </Array>
          </mxGeometry>
        </mxCell>
        <mxCell id="z2CHQpgufFifvv1Qfl7E-9" style="edgeStyle=orthogonalEdgeStyle;rounded=0;orthogonalLoop=1;jettySize=auto;html=1;exitX=0.5;exitY=1;exitDx=0;exitDy=0;strokeWidth=3;targetPerimeterSpacing=0;sourcePerimeterSpacing=0;endSize=6;curved=0;fontFamily=Trebuchet MS;spacing=2;jumpStyle=sharp;jumpSize=6;shadow=0;fontSize=18;" parent="1" source="ZIqmXXqL1ILBx22d_BI0-1" edge="1">
          <mxGeometry relative="1" as="geometry">
            <mxPoint x="788" y="591" as="targetPoint" />
            <Array as="points">
              <mxPoint x="728" y="591" />
            </Array>
          </mxGeometry>
        </mxCell>
        <mxCell id="ZIqmXXqL1ILBx22d_BI0-1" value="&lt;font style=&quot;font-size: 18px;&quot;&gt;&lt;b style=&quot;font-size: 18px;&quot;&gt;Flash&lt;/b&gt;&lt;/font&gt;" style="rounded=1;whiteSpace=wrap;html=1;strokeWidth=1;fontFamily=Trebuchet MS;fillStyle=hatch;fillColor=#000000;perimeterSpacing=0;gradientColor=none;opacity=40;glass=0;fontSize=18;" parent="1" vertex="1">
          <mxGeometry x="668" y="391" width="120" height="160" as="geometry" />
        </mxCell>
        <mxCell id="z2CHQpgufFifvv1Qfl7E-3" value="" style="endArrow=classic;html=1;rounded=0;entryX=0;entryY=0.5;entryDx=0;entryDy=0;strokeWidth=3;targetPerimeterSpacing=0;sourcePerimeterSpacing=0;endSize=6;curved=0;fontFamily=Trebuchet MS;spacing=2;jumpStyle=sharp;jumpSize=6;shadow=0;fontSize=18;" parent="1" target="ZIqmXXqL1ILBx22d_BI0-1" edge="1">
          <mxGeometry width="50" height="50" relative="1" as="geometry">
            <mxPoint x="608" y="471" as="sourcePoint" />
            <mxPoint x="638" y="471" as="targetPoint" />
            <Array as="points">
              <mxPoint x="638" y="471" />
            </Array>
          </mxGeometry>
        </mxCell>
        <mxCell id="z2CHQpgufFifvv1Qfl7E-17" value="&lt;font style=&quot;font-size: 18px;&quot;&gt;Composição {z&lt;sub style=&quot;font-size: 18px;&quot;&gt;i&lt;/sub&gt;}&lt;br style=&quot;font-size: 18px;&quot;&gt;&lt;br style=&quot;font-size: 18px;&quot;&gt;&lt;br style=&quot;font-size: 18px;&quot;&gt;Pressão P&lt;br style=&quot;font-size: 18px;&quot;&gt;Temperatura T&lt;/font&gt;" style="text;html=1;align=left;verticalAlign=middle;whiteSpace=wrap;rounded=0;fontFamily=Trebuchet MS;fontSize=18;" parent="1" vertex="1">
          <mxGeometry x="478" y="396" width="132" height="150" as="geometry" />
        </mxCell>
        <mxCell id="z2CHQpgufFifvv1Qfl7E-19" value="&lt;h1 style=&quot;border-color: var(--border-color); color: rgb(0, 0, 0); font-style: normal; font-variant-ligatures: normal; font-variant-caps: normal; letter-spacing: normal; orphans: 2; text-indent: 0px; text-transform: none; widows: 2; word-spacing: 0px; -webkit-text-stroke-width: 0px; background-color: rgb(251, 251, 251); text-decoration-thickness: initial; text-decoration-style: initial; text-decoration-color: initial;&quot;&gt;Equilíbrio Vapor-Líquido (VLE&lt;sup&gt;1&lt;/sup&gt;)&lt;/h1&gt;" style="text;whiteSpace=wrap;html=1;verticalAlign=middle;fontFamily=Trebuchet MS;align=center;" parent="1" vertex="1">
          <mxGeometry x="402" y="280" width="365" height="50" as="geometry" />
        </mxCell>
        <mxCell id="z2CHQpgufFifvv1Qfl7E-20" value="&lt;font style=&quot;font-size: 18px;&quot;&gt;&lt;b style=&quot;font-size: 18px;&quot;&gt;Vapor&lt;/b&gt;&lt;br style=&quot;font-size: 18px;&quot;&gt;Fração V&lt;br style=&quot;font-size: 18px;&quot;&gt;composição {y&lt;sub style=&quot;font-size: 18px;&quot;&gt;i&lt;/sub&gt;}&lt;/font&gt;" style="text;html=1;align=left;verticalAlign=middle;whiteSpace=wrap;rounded=0;fontFamily=Trebuchet MS;fontSize=18;" parent="1" vertex="1">
          <mxGeometry x="803" y="337.5" width="135" height="83" as="geometry" />
        </mxCell>
        <mxCell id="z2CHQpgufFifvv1Qfl7E-21" value="&lt;font style=&quot;font-size: 18px;&quot;&gt;&lt;b style=&quot;font-size: 18px;&quot;&gt;Líquido&lt;/b&gt;&lt;br style=&quot;font-size: 18px;&quot;&gt;Fração L&lt;br style=&quot;font-size: 18px;&quot;&gt;composição {x&lt;sub style=&quot;font-size: 18px;&quot;&gt;i&lt;/sub&gt;}&lt;/font&gt;" style="text;html=1;align=left;verticalAlign=middle;whiteSpace=wrap;rounded=0;fontFamily=Trebuchet MS;fontSize=18;" parent="1" vertex="1">
          <mxGeometry x="803" y="517" width="135" height="83" as="geometry" />
        </mxCell>
        <mxCell id="z2CHQpgufFifvv1Qfl7E-23" value="" style="shape=curlyBracket;whiteSpace=wrap;html=1;rounded=1;labelPosition=left;verticalLabelPosition=middle;align=right;verticalAlign=middle;strokeWidth=2;fontSize=18;fontFamily=Trebuchet MS;" parent="1" vertex="1">
          <mxGeometry x="468" y="409.99" width="10" height="30" as="geometry" />
        </mxCell>
        <mxCell id="z2CHQpgufFifvv1Qfl7E-24" value="" style="shape=curlyBracket;whiteSpace=wrap;html=1;rounded=1;labelPosition=left;verticalLabelPosition=middle;align=right;verticalAlign=middle;size=0.5;strokeWidth=2;fontSize=18;fontFamily=Trebuchet MS;" parent="1" vertex="1">
          <mxGeometry x="468" y="482" width="10" height="46" as="geometry" />
        </mxCell>
        <mxCell id="z2CHQpgufFifvv1Qfl7E-26" value="&lt;span style=&quot;font-size: 18px;&quot;&gt;Base de dados de composições dos reservatórios da Petrobras&lt;/span&gt;" style="text;html=1;align=right;verticalAlign=middle;whiteSpace=wrap;rounded=0;fontFamily=Trebuchet MS;fontSize=18;" parent="1" vertex="1">
          <mxGeometry x="232" y="379.87" width="223" height="90.25" as="geometry" />
        </mxCell>
        <mxCell id="z2CHQpgufFifvv1Qfl7E-50" value="" style="shape=image;verticalLabelPosition=bottom;labelBackgroundColor=default;verticalAlign=top;aspect=fixed;imageAspect=0;image=data:image/png,iVBORw0KGgoAAAANSUhEUgAABoAAAAC2CAYAAAD5qE84AAAAAXNSR0IArs4c6QAAAARnQU1BAACxjwv8YQUAAAAJcEhZcwAAEnQAABJ0Ad5mH3gAAF9MSURBVHhe7Z2xbuM61K2Z+yJp4imCeQLnCSanOcAFpp3OLpNmgL+YcooLTGOXSTftAS5wmmM/QfwEQYqxi+RJ/JOSbEsiKW5SpERS6wM0Y8uUrMW19yYV2fLV09PTkQEAAAAAAAAAACBb/t+f/189mi7/8+n/Vo8AAAAAAKbB1ZFTPZ4cHx8f7Pr6uno2PaAf+qEf+qcK9EM/9EP/VIF+6Id+6J8q0A/90A/9UwX6oR/6p63//1SPAQAAAAAAAAAAAAAAAAAAQCbgAhAAAAAAAAAAAAAAAAAAAEBm4AIQAAAAAAAAAAAAAAAAAABAZuACEAAAAAAAAAAAAAAAAAAAQGbgAhAAAAAAAAAAAAAAAAAAAEBm4AIQAAAAAAAAAAAAAAAAAABAZkgXgLbLK3Z11V7u2N1yyw5Vmzw5sPWdSnttuVtn3gdN/+/WLbXbZfkaj4Uzhy1bL3l8nPooi1g5cFlLdlePh7s7tty2VR3Ydt1qV+hfM7lpSv1koZ9rKtssWS0qEoegP8u4P0HXf349E/3n+levcQXUnBBs2bLWTtpVxFjX/4J8+qaP/+q5k6IfIyaU/2n1DTGepRoo9CSU7FoM+g/r2rgnLynVOzUU/8u5T70f7u74HCjGcLaGrv/8+tTmPwXm+e9BnB+c+4jHCD83iL+P/OmntYkNT/qTPUfwq/+8j6npP5Pa+YAf/enOhz36n+Qc0YP+pOeIvvwvX09vjuhX/3kfOdV/4tge/fzv2GKzYEexWrnMV8d91S4H3t/fq0eC/XE1V2iuL1nrL2n6vzhuqvUFm0W5fnFauzkuzm1by7lNvKj0d8fB/Lg6BwDX3hkvrbbKNnwZsZ/66N/zWJg3XmvFSgK460877k9Af0f9a+ig1oSS/WreaBNrl3TqLxZT/Rek2ze+/dfNnebtToiEIf2PsW/c659AUwMTmiM669+vWmN/c4m13rVx97+rTTrzoCD6UzGf0yf/KfNfXc2LpUaE1h/7OUJY/fHPkaE/bPyfiPV8YKz6F8t8OLz/cc8Rg+pPYI4Y1v+u/ehrxZCMpj/5+k8b21KY/+lvAbfYiItDxbJfcbmC3SP7FfvFa2du2MNLqVcs3LySWj8cXx54q2kwn/P0Zs/sp+nTGvMFW232Zf/sV+zUbez5X/UnIiLnsP7GHnfl4/lqw3iiFtr2+w1biC6p2C7v2XPRbs5DpNIv2m1WfI1gxx6/1a72JtJPVP37f595bqzY5lQbMoGqP7e4P+Gk/7hnfNAsef2TwCc87CD3ieCwZt9EY94/0msJQa3/U+gbK40cPges8qJcXh7SmzUE8Z8Te99Q9RTjv3gw52Pg/qRnz/a//0p6jkjSf/PAXqr15+UyYWZ/f6keJghJ/+E/9k/RZs7HwEo/nwOUL7+yPwkPgCT9219VG66/iv39aQIwkfmPcf7Lx7qfRYEQNa+cJ+1PObL7h/0XaYx4089J8RzBp/4UzxGC6U/kHMGrfkFic17v+jkpzYd96k9xjuhNf6JzRG/6E50jetOf6ByRqt84tqcy/+MH1oAfY3mVqnGV7nLFq7E6cdRXAEvU/ZAXKv0n3YvNyfPald2N6hPAdepXT+O4yt2FrL92ZbfT90s71adZLp/4uVwxbxJHP7nrr3GKiQT8buNFf0FacX/Cm/795qw/1m87qOiqfxf9dn1yqZ+XmLAKpQHp0k+r/2n3jW//L/qqFZEzpP8x9o17/Tu1043vaeCuv01t/IvJYAN+/T+ty3/8P89vG59kvGybSgh4iX/d/Fe5Pq4+Cqq/DqXNCAymvyC+c4RB9Ud4jjCE/tjmvHVC6499PhxW/2lf8c4RR6t/kQTE8P6f1pn6ahhC6k9hjuhFf4FibFf2S3z69d8AOnNg2/XP8ko2m7PbWfEAZM8X9p1HNeVTwBf27K26esoWf/M9JMbhD3utHi66PqKw/fecD1//kj/LcfPX1+pK/4697YsHLSLtJ6r+XHHWn3jcn7DRf6jd43d2X3xqQnxi4neC33boxKZPtkt2LwrDYsOekk8fQv2fQt841ITn+4jv+UvGs/8VUfcNVU+t3duv5j2u5ftkJ4SDnwX1T/t9Tym5W5D1n3Jjxx5nIo7Ffb7Fp33Ft8Gfsh//bz59Lh/s3tj+FO582+RxjX8Fhz/Vnua37HLKPGO35YkBe43xI8Ae9SdJUP0JnCP41p/aOYJv/anNeQPFfzLzYZ/6a/tKZo4YyP+CFOaIXvUnOEf0qD/JOaKzfnlsT2X+p78A9HxfFawZuz99J2rxg+X29z2g5+bhR/HVtt3jL9JX9s5feeVbbZL+C2jYC53x99PUL/Ta6c8n7k+4+b97/Ml+kS8Wp4apT7ZsWZztJf5H0Br0+j+FvnHMiedHNrtL8yKQP//VxNs3Bj37N35aJ9ix5/I+sBX8+f03ln4JtPHzwNbnex3kcn5g1n/z8MI21T0hds/PZTzMv7I8Sr9B/+yWtxA8s/tZ9Yet2WM1B8oBt3qWD9DvW39a5wjh/E/jHMGH/pTnvAH9T2I+7EF/0nNE3/6nNkf0oz/dOaIH/UnPEe30p/z3P8I3gDjz6ndOsvjjJqBD+BRwxWF9V37ahSfPap/wpyALdN/csUUuJGn0ky/9qULXn1fcnyDor9/jd7+p7u/NJ7ePOfwBVEV3nxyqb8nOV78z+pAEtf5PoW/MOfHlqcqHYtlffkcw4t986MaP/4K0+oZQ/wpEza80iXtEF+t27J80za5B1c853+ucn/74/tToaJj1b5dXfNznwsX9/TfV/cF3j2x2tTRcLE0Bg34x9ovfuizG/JI574Da08SxiP8sgX6f+tM7R/CkP9lzhP76057z+vE/3fmwz/xPcY7ot/6lN0f0oz/dOaIH/UnPEen6U//7n/4C0GJzKd4vL+zpSzZ/1QIW3Dz8LiZu+k8BH3ihu2Oz4ltiIgle0v0j380nVn1xkT3/21Giz1e31YXi8N8//BXBZ/bp3BcJ9BNVf65Y6c8o7k+4+n/zhT38OM/u/U4ex4bYJ/vqO8C7x9n5m7OnL84Wt0BYpplPnfV/Cn3jXBNv2Jfvpx/9TBcf/stE2jdUPefxvwavgX+fSmCqOPi5/fVYznX4SW7y336h6j/d2odr3r88sC9fvrCnl9OPnJs/LBUtNv5/4Sf4L9X5IV9evn+tXoj3B56NONczmcYtUMpHnMutQj5fTgziwaP+JPGuP7FzhJD+p3CO4FF/knPeoPmfwHzYp/4U54iB/E9mjuhTf4pzRN/+pzZHtNLfPbanMv+jfQMITJibauLGi9bP0x0SL2yXs/Iqt/j6W/J/BK8N0M/3bMmL9LlMH7ZseXdXfnLp5i/2tRrdn+/5uto9XQ+88H87zfRq93pOo5+I+rOFrj+vuD9B1H9Ys+VyzS5hX/uKNx8M/X59fGymnhNd9X8KfWORE3fNnDif+PBpZYx/76Phwf9k+oao53yiUPskJ9d4KoFR/nGXhGU+1zQvfjzwSEkdmv7z/b0b9zev3Qc8Waj+8/U8meuvrb9V+ZzybyDaxn8XtVug/FsVvkPtt0PjnCN51J8kfvWnd47gUX+S5wiIf6/+Jzcf9qg/yTligPhPao7oT3+ac0Sf/vNtk5sj0vUbx/ZU5n/HFpsFO4rVbLGp1uTL+/t79UhmCv2g0n/S3ZS9P67mVX/U+2S/OvIgv6xvLbF3ndr/zZHXAKUenrjH1b5qZtDO5gu+p4pI+6mP/nN+dLSJHWf9icf9iSD6UxHP6ap/TR3EmtDgUjNj7ZIu/c1j1tT/gnT7xqv/HTkxV3fC6Azmf6R941z/RCvd+Ddf8d5Kgz76BZc+qM11EsJZf+f43+yjmHH3X9cmHe2CIPlPaTPmoFdjNP2RxElQ/QmcI4ymfyLx3yS+84Gx/I9lPjxa/YtkjjhE/F/axTdHHK3+tfpoLML6r9tPHNoFzvqJY7u2jyIa//ANIEDghj38Tv92NjS+sKfifrWt+1XOxe9g1e7nK+5xKe5rrGq32rD9S3r3gywh6s8W6Dfq57H/e7Mq72l7ong919+Jm3pMdNX/KfQNLSde9u2cWLAVz4mX5Duhp/9J9Q0tnr88tdvwxwsx7qf+TRhiPtc+2Tlffedb5YJNPDda8CZ5fAve7L/4pGTz9flilck3oYnxT0DUCHF+cIHvYxX7HMmf/jSBfi/6kz1HgP++/E9zPuzP/zTniB7jP8k5ou/4b+yF7yb2OaIv/1OdI/rN/9jnf1fiSlD1eHJ8fHyw6+vr6tn0gH7oh37onyrQD/3QD/1TBfqhH/qhf6pAP/RDP/RPFeiHfuiftn58AwgAAAAAAAAAAAAAAAAAACAzcAEIAAAAAAAAAAAAAAAAAAAgM3ABCAAAAAAAAAAAAAAAAAAAIDNwAQgAAAAAAAAAAAAAAAAAACAzrt7f34/VYwAAAAAAAAAAAAAAAAAAAJABV0dO9XhyfHx8sOvr6+rZ9IB+6Id+6J8q0A/90A/9UwX6oR/6oX+qQD/0Qz/0TxXoh37on7Z+3AIOAAAAAAAAAAAAAAAAAAAgM3ABCAAAAAAAAAAAAAAAAAAAIDNwAQgAAAAAAAAAAAAAAAAAACAzcAEIAAAAAAAAAAAAAAAAAAAgM3ABCAAAAAAAAAAAAAAAAAAAIDNwAQgAAAAAAAAAAAAAAAAAACAz9BeAtkt2dXXFrpbbakWdLVuK12qLspkEbbvtstnmbn2oXhmQTv0l7eNUtaW0aULpI9f+p3FY3zX2bT5mgZu3V3drNoK7HfTsW0PcxK5fOr5qacsJFyNhY5uCq0fxx7YZqv8NDmt2p9jmtEjbEmrrmLjFttx3unFL6uOo+qF//p37rx7/tjEyItb+E7U55dZYWOeoOW5y1m+jLdf8N+fN+GO7mUD1r0bW9Z+YN6Y+Gh2HOYrkq05b5POfgsnWvwprj2h509Y+yt82KPSIUX1up1D/K1z1G7bL3v/O7dLw33r+X0Gu/5yYxz9r/Zmd/4TSX2eK/p/pMbYEpcffKGxjOxr/jxL742rOjuKlYllsqvUnytfrqzeLsq3UtAFtu3Ld4nhetVkUbearfbXCH+/v79WjOib9gqrNfMUf6aC0kRH65f6YH+vyKW0oqPTvV/PWvjbHhbYfTjh6e9q3ZR/5QtZP06HGHDfx66+O0XA8bjFS7lvu2zCxTUGr38Ej1+3GxNV/KmWc1PvEnCND4q/+KfxXjltuY0Io/Na/iv3qOOf9t1jwfiTolGNkOHz6r6KtzWdu+UCl/xQDdjlKi5t89VO15Zv/lLwR+5L3HWZspzB8/cvX/7M24XnLdwnLMSIU3vPfOP9z23coUP/86q83LeOhWdukGAn4tw0KPvWf0eZ2uV+5jyxqq2f86jdvl7f/pu3S8N/b+Z+y/ldEPP5N/fwnpP4zE/Wfr3GsLWFQ1z8ZrY81rGI7Iv+lC0CXAKjMophUCHIYyNrbafYTqnB0J4BePyUgKG1IUPrWsf9l/WWyt/fjpEU6JnV/eusnB0gFgNi35rhJQ78510LGiALH2KYg63f1KD5vKbj5T0WeOJhzZFi81T9NjLb7MrZ48Fn/SkpfRdtCqzGO3CeXPvDmvxJZW6h5jCsq/73lqCJuctZP0ZZv/vutm0MxdP3L1/+TNkre2I4R4fCX/+q2bb/d9h0O1D9/+iXaeaPJozHHRP/6y23IuR1h/XfVb9wuc/+dtovOf9f5v1qzeruyLTlHAuJPv4oUz3/C6i+Zrv/lflzHFv+o6p+Mzscm9NiOy3/pFnA3Dy/seHxhDzfViiHZv7Ed/+/zp+abz275MLF7Y/vqeUjM+g/sv3923Lfv7Eu1RobSxo52n6igtOnk8Ie98v/a+7n59Jn/+8z+7fWNvRtW7Ob1T+0rb2U/scXf3vppLMxxk4n+ADEySGyTcPUo79h24bD+yaNhzlbfL+pHHVsouMY2adzyPybExmH9jT3uFuwH0WBVjIyKx9oWnTYi0edoYMLpzzj/e+bNMGN7eLrrX971n5o3tmPE0LjlP23+l0JtnXr9863/XNsi+NsGhT76Y89tCq76jdtl7r/vvBkF53kM/fw/6hyZ+vnPAPqn7H+KNcJ3HMfmv/43gGzQDG5G2tvNbnlXy5QB+Mr+XKrriOzZmzjot1+t+wXescvtXCltKBzY+tsj281XTB9/lDZECj/m7HZWPT+h8aUTRUx8edqwxe6RzYp+EPeDnRXJsHnyk1xBcI1tBcnoL47xEreN+xR7i5GBY5uIq0dJxraOLv9JnCa/P9I6IXCNbdK45WtMGBhq/Tus2bfHHVtsnoh/4IkwRjzWNq223rmVCLq4yVl/p7aM898pb4Yf253wVv8yr/8UrMeIdMhq/udKjvXPCUVtI80RE8Ylt33WltjJ3X8XYvPfaR5TQqr/sY9/PfQ3SfT8J7R++J8YljpMsR2h/x4uAPFid//MmPWJnGK7m7/YVx5pzz/rP4zEJ1M/ebvI2L3est/H4hZ6fNmz1XzHHmdLruoCpY0M13t3CqJqEHl5YM34o7QZE11MfGFPRz5Q8jLzOLtnwtW4TwZdY1tH/Pq/PJ3itVz2qzmvazNPA3UKse3qUWqxrcaL/9tf3Deu/+/U1DtiMW65jQljQa9/21+PbLfYMPLfu3KOEY22sLU1JtRxk7N+qrZc859G7PPWNv7r35T9tx4jkiKP+Z8redY/Gwy1LaG/bbhgn9u+x5bIydx/e3Lz31z/8x7/akz9/Eejf+r+J4eFDkpsx+h/7wtA26UodnO2+m13Iqfe7oY9vPAi2riSNmNvnxf8tc8spg+KzL/+1TzuH+IYm1+To7SREX1QD6RXds/7oVkkKW3GQxcTh/Ud9/Oesc0lSZ7vucfLSE9/HWNbR2r6BeJrmxsetrt//qtNXF2JP7ZdPUrRWwr2/lcnNVM5sSsQMUsbt9zGhHEg17/tkt0/Lxj90845xwhdm9/aGg/UuMlVv0CnLcv8JzPu2G5LiPo3Wf+tx4i0yHX+50oO9c8OU20Tr6fxtw1rHHLb/9gSOxn770Bu/hvrf+bj34Wpn/9o9MP/xOinQ4rtSP3vdQFou7ziongR39vd1697O3El/TKREsv321duxC1rfzMtKihfk7P+Kp0IpN+MjyVs9/hL+ykpShsSxfHt2Fv7hrS6rwYq0Hpbff1tvtqfr4CKJBG/nsVHShbbeZJrbGtJTL/E6T7FHmLkxKCxTcHVo9S9pUC9T/XpUxM/EpzY94ptx3HLYUwYApv6t/2XT5T46Zz4g0d5YnvFZiIIqpNd6Q+8scaIj9rmoi2ie8D3xWnczEi/hElbBvnvmjeDju2WBK1/dXLwn0CvPoqdKcz/XEm0/vVFXdsS/duGAdvc9l1b0iFP/22J1n/X+T+h/icx/rnqr5Py+U9A/fA/MXzpqGI7Vv+dLwCVRZx30MauiNtvV96Hr/nJoTGZseJ3+9pXrRtJQmljCWWS0HcicfOJFXekbd2Q9vCn+Gkw46dUOr0ttPO9tHcS4QmAa2x3kpD+JgdW2H+KrZ4xomSI2Kbg6lGy3lJo+W+gHOgWLMlv/3qN7fa4FWBMCIRt/Wt//Vks4hNw/IyI7fnjl9ZOoo0RD/7babPLrdhxmdvlpL9JW1u++d87byLzP0z9y9h/ArZjRFJkPf9zJd3655XO2hbb3zbcsMntELUlXfLw34ao/XedxxDqfxLj39TPfwLqh/9p0V9HM7aj9Z8fiIb9kR/fkVfq6vkFfuBHsanipTObBd+WzY8rru4EZbsm1THMV/yRf97f36tHKvT6ubiWjs1xwZ832hLayH0k2iz4vzWq/czPjShtaKj0S8e0Xx15mDb27eZtpb/lZbmvlp6BUOl3je0LurhJQL/wunV8qv5wi5FhY5uC7D/NI7U283ax4c3/E4o4UNNRWwfEZ/1rohm3CGPCkISpfyXFftr6BeQYCY93/7u0idcIuTUkKv0X9Dmq0m/UkrN+qraM89+cN8OO7RQGr3+TqP/0sV3ZRwPir/7Zzv/ofRQS1D+f/tvWtmr/WcS/jCq3KbVlSMLo12/XJFf/9dul4L+ytrXyWJ3/fB25/pfEOP656a9QtD1DHSMGZFD9CiblfwNqjQyLtv4ZdCj7yCG2Y/BfugB0OnB5ORWyqtgpl0unyEFC2a4KjPprAYNEFQBm/SVSO8VxmtqoEkn1/u1dU9pQ0CVAeVyXpZ0Ibt4KVO30A2RoZP2usU2Nm9j1K/JPc3z2MTJsbFNQx7/ZI5W22Lyl4Oq/Wv9pvV4zLUeGw1/9o49bUh+ECm4CPutfm0KnYnJjipEh8ed/Sbc2em0dCpV+So7K+ilxk7N+urac879cf1naeaPq2xHlj1L/cvWfkjdtdH00FP7yX6Dqu6Z2lz4KCeqfP/9V2zWl0eeIQ+E3/psU+2nkNq22DElo/5vb5e2/ebs0/BeU+i4Lbf5vrv9t5BwZFr/6T+t1mtOY/wvC6JeZlv+02jIk3fr1xyTrd4vtGPy/Eg/4AU+Sj48Pdn19XT2bHtAP/dAP/VMF+qEf+qF/qkA/9EM/9E8V6Id+6If+qQL90A/909bv/BtAAAAAAAAAAAAAAAAAAAAAIE5wAQgAAAAAAAAAAAAAAAAAACAzcAEIAAAAAAAAAAAAAAAAAAAgM3ABCAAAAAAAAAAAAAAAAAAAIDOu3t/fj9VjAAAAAAAAAAAAAAAAAAAAkAFXR071eHJ8fHyw6+vr6tn0gH7oh37onyrQD/3QD/1TBfqhH/qhf6pAP/RDP/RPFeiHfuiftn7cAg4AAAAAAAAAAAAAAAAAACAzcAEIAAAAAAAAAAAAAAAAAAAgM3ABCAAAAAAAAAAAAAAAAAAAIDNwAQgAAAAAAAAAAAAAAAAAACAzcAEIAAAAAAAAAAAAAAAAAAAgM3ABCAAAAAAAAAAAAAAAAAAAIDMUF4C2bHl1xa5qy3JbvVSxXTZf17VTcVjfNbfTbCS9B2XnfTms2V39PVtLcQiUNhz3PjL3f2ioHjWhHbfUL3drdqhei4Oe/b9dlttpNopdPzVuw8XI+PHv6lH8sW2G6n8DYk08Y8iRsXGLbbnv7tZq96U+jqof+uffuf/q8W8bIyNi7X/wOcEIWOeoOW5y1m+jLdf8N+fN+GO7mUD1r0bW9Z+YN6Y+Gh2HOYrkq05b5POfgsnWvwprj2h509aumyOOTo8Y1ed2CvW/wlW/Ybvs/e/cLg3/ref/FeT6z4l5/LPWn9n5Tyj9dabo/5keY0tQevyNwja2o/H/2GB/XM3ZcbGpnnI2C3YUzaR18xVvbcd+Nef7mh9X5w03xwXfN6vvvDoGl/3b8v7+Xj3qpjzuBT9aPe02rn0ktpP7v95n/lDpp3nUxiJuGv1Y7XsAr1XI+mk61FRxK/Ro+it+/dUxGo7HLUbKfct924xtShtfaPU7eOS63Zi4+k9FrpvmHBkSf/VP4f9mUWicNwJ3uLGNgt/6V7FfHee8/xYL3o8EnXKMDIdP/1W0tfnMLR+o9J9iwC5HaXGTr36qtnzzn5I3Yl/yvsOM7RSGr3/5+n/WJjxv+S5hOUaEwnv+G+d/bvsOBeqfX/31pmU8NGubFCPKOeJw+NR/Rpvb5X7lPrKorZ7xq9+8Xd7+m7ZLw39v53/K+l8R8fg39fOfkPrPTNR/vsaxtoRBXf9ktD7WsIrtiPxvXQBSUBxsc5ByS+QykNqDXbtzKZ3tC1oAUBJAbuOt2Cn63xeyfppHJKTjrpK/1Y9D+t2G5D+x/0sdonCqdaai3xy3IWNEwaDx7+pRfN5ScPOfilwTzTkyLN7qnyZG230ZWzz4rH8lpa+ibaHVGEdyjAyJN/+VyNr85ZYfVP57y1FF3OSsn6It3/z3WzeHYuj6l6//J22UvLEdI8LhL//Vbdt+u+07HKh//vRLtPNGk0djjon+9ZfbkHM7wvrvqt+4Xeb+O20Xnf+u83+1ZvV2ZVtyjgTEn34VKZ7/hNVfMl3/y/24ji3+UdU/GZ2PTeixHZf/w/0G0OEPe+X/ff50Uz6vuPn0mf/7zP4tvip1YP/9s+N98p19EU8j4LD+yY9uzlbf9UdEadOXdr8FgeSRKzes2M3rn9pX3kq/2eLvaPx25ebhhR2PL+xBa1Mm+gPECCW2B4l/Z4/yjm0XVDXRnCMj4xrb+zfGnZa2m93y05vdG9sXz+Ib23xzWH9jj7sF+0E0eIhx0wqPtS06bUSiz9HAhNOfcf73zJthxvbwdNe/vOs/NW9sx4ihcct/2vwvhdo69frnW/+5tpHmiOPTR3/suU3BVb9xu8z99503o+A8j6Gf/0edI1M//xlA/5T9T7FG+I7j2Pw3XwDSDFxs98hmtXvdGe9lWuxnzm5n1fMTs1u+9sSevYk3e/vVuhffHRvnVqmnIv6jI2g72tj2kcSBrb89st18xQapoySPiCji5svThi2KPhF+ivvBzopk2DxFPEjo4t+BZPR3xa23GKHE9sDxz3H1KMnY1tHlPwlK3YwQ19jWvF5OnF7Zn6L7YhvbiFDr32HNvj3u2GLzRPwDT4Qx4rG2hZsTJIIubnLW36kt4/x3ypvhx3YnvNW/zOs/BesxIh2ymv+5kmP9c0JR20hzxIRxyW2ftSV2cvffhdj8d5rHlJDqf+zjXw/9TRI9/wmtH/4nhqUOU2xH6L/hAhAvZPfPjLVO0r48FbeOOy/71Zxrn3lL5t3rLft93v+ereY79jhb8qMZmO0vXsS5/3932KVp495HfPJ4dwqiahB5eWBp5ZE6bnivsKcjHyh5mXmc3TPeIvKTQZ0OV+LXHza3KbE9dvy7epRabKvx4j+lbubEzV/sK58hPf+s/6Afj+OfIgqaRDO2kaDXv+2vR7ZbbBj57105x4j3OUFqjDNvHBOqtlzzn0Zqc1v/9W/K/luPEUmRx/zPlTzrnw2G2mYxR0wR+9z2PbZETub+25Ob/+b6n/f4V2Pq5z8a/VP3PzksdFBiO0b/Oy8AbZeikM3Z6nf3SZr4atdmwSd3//xXG9zcmX/9q/Z+N+zhB985PxKbr6D1pxqcOwcoSpsSeh9xvS/1QHpl93xSmVKR1MXNYX3HJ8f3jG0uSfJ8zyfMy0hPf4nxTyU1/QK/uU2J7XHj39WjFL2lYO8/vSbmg4hZPvlvfAJkxt4+i3HrM6t/wC2OsY0Guf5tl+z+ecHon3bOOUZCzAnSYqx5Y0zotGWZ/2TGHdttCVH/Juu/9RiRFrnO/1zJof7ZYapt4nXaHDE5HHLb/9gSOxn770Bu/hvrf+bj34Wpn/9o9MP/xOinQ4rtSP3XXgDaLq/4AfMCvbe4Z1/XvUyLr5Ht2Fu7ge5rZ3Wsv4LmgdPVvx8dAxSlTRvL+73ePPxmfCxhu8df4T8l1cejCm3cVF9/m6/25yugIknEr2fxkZLFdp7kFP9dJKZf4hS3HmLkBCW2B41/V49S95YCtW651MRY6BXb4hNglz8AiOX77SufQNyyzs3GGNsI2NS/7b98osRP58QfPMoT2ys2E0FQnexKf+CNNUZ81LYB5gQx433emDombRnkv2veDDq2WxK0/tXJwX8CvfoodqYw/3Ml0frXF3Vtc5wjRo5tbvuuLemQp/+2ROu/6/yfUP+TGP9c9ddJ+fwnoH74nxi+dFSxHav/ygtAZYHm4jfUAn1gf8SvR3UNZDefWHG309bNTg/FhqdPQMxY8Zt47SvCNgHoidKwBev69helzQVCH3UxxCSB5JGezrgpPOR7ae8kwhMA+/gnkJD+Jq247RkjSiixPUT8u3qUrLcU7OqWXU2MDK+xXd4/9vKJ13jGNhO29a/99WexiE/A8TMituePX1o7iTZGPPg/6JwgMoLMG5OlrS3f/O+dN5H5H6b+Zew/AdsxIimynv+5km7980pnbWvPEdPEJrdD1JZ0ycN/G6L233UeQ6j/SYx/Uz//Cagf/qdFfx3N2I7Wf34gDfhBHcXqxaZa0Wa/Os7nqyM/6DOqbTYLxtfNj6taQ2md2Bffbt5s1NrX5rjgz/mIUT33x/v7e/Woheq42nS1ce4joXXB/61R9UfnsTii0k/xSOWtMW5OPrb6pdxXS/NAqPSbdaj1X9gfeV4r4jUB/a5xS4oRSmyPHf80j9TazNvFhjf/TyjiQI0uR4bFZ/1rUulr9SXfsNWXVdyM1A9h6l9JsZ+2fgE5RsLj3f8ubeI1Qm4NiUr/BX2OqvQbteSsn6ot4/w3582wYzuFwevfJOo/fWxX9tGA+Kt/tvM/eh+FBPXPp/+2ta3afxbxL6PKbUptGZIw+vXbNcnVf/12KfivrG2tPFbnP19Hrv8lMY5/bvorFG3PUMeIARlUv4JJ+d+AWiPDoq1/Bh3KPnKI7Rj8b10AqgqZcjkJrsxrvCYXOV2QlOsvi6qTT513XgIFii4AymPUF25Bdxv3PpK08yVUnnTrvyxtj+TjpsSNQNWuu59DIuun6aD6Vi51fbHrp8WtwD5GaLE9fvybPVJpi81bCq7+q/Wf1us103JkOPzVP0W/aYJW6oNQwU3AZ/1rU+hUTG5MMTIk/vwv6dZGr61DodJPyVFZPyVuctZP15Zz/pfrL0s7b1R9O6L8Uepfrv5T8qaNro+Gwl/+C1R919Tu0kchQf3z579qu6Y0+hxxKPzGf5NiP43cptWWIQntf3O7vP03b5eG/4JS32Whzf/N9b+NnCPD4lf/ab1Ocxrzf0EY/TLT8p9WW4akW7/+mGT9brEdg/9X4gE/4Eny8fHBrq+vq2fTA/qhH/qhf6pAP/RDP/RPFeiHfuiH/qkC/dAP/dA/VaAf+qF/2vqVvwEEAAAAAAAAAAAAAAAAAAAA0gUXgAAAAAAAAAAAAAAAAAAAADIDF4AAAAAAAAAAAAAAAAAAAAAyAxeAAAAAAAAAAAAAAAAAAAAAMuPq/f39WD0GAAAAAAAAAAAAAAAAAAAAGXB15FSPJ8fHxwe7vr6unk0P6Id+6If+qQL90A/90D9VoB/6oR/6pwr0Qz/0Q/9UgX7oh/5p68ct4AAAAAAAAAAAAAAAAAAAADIDF4AAAAAAAAAAAAAAAAAAAAAyAxeAAAAAAAAAAAAAAAAAAAAAMgMXgAAAAAAAAAAAAAAAAAAAADIDF4AAAAAAAAAAAAAAAAAAAAAyAxeAAAAAAAAAAAAAAAAAAAAAMkNxAWjLlldX7Kq2LLfVSzUO67tGmytVow7O29+t2aFad2K7rO1X0yY426VRl3SciraUNk0o/U/zyBU3b2nHFIW3nfTsW0PcxK5fOr5qacsJFyNhY5uCq0fxx7YZqv8NDmt2p9jmtEjbEmrrmLiObe2+u1ur3Zf6OKp+6J9/yrHdNkZGxNp/ojan3BoL6xw1x03O+m205Zr/5rwZf2w3E6j+1ci6/hPzxtRHo+MwR5F81WmLfP5TMNn6V2HtES1v2tp1c8TR6RGj+txOof5XuOo3bJe9/53bpeG/9fy/glz/OTGPf9b6Mzv/CaW/zhT9P9NjbAlKj79R2MZ2NP4fG+yPqzk7LjbVU85mwY6iWX3dfjXn6+bH1b5acdwcF7wNqzfqYr86zvn2iwXfz3zF3/VC+X4LvscT1b5b7Xzw/v5ePapT9oHQXCxKTVWbzmOitJER+uX+r/c1rQ0FlX43b2lxU64bxlsKsn6aDjXmuIlff3WMhuNxzX+xb7lvw8Q2Ba1+B49ctxsTV/+plHFS7xNzjgyJv/qn8H+zKDTOG4HrNiaEwm/9q+gY21XIMTIcPv1X0dbmM7d8oNJ/igG7HKXFTb76qdryzX9K3oh9yfsOM7ZTGL7+5ev/WZvwvOW7hOUYEQrv+W+c/7ntOxSof37115uW8dCsbVKMKOeIw+FT/xltbpf7lfvIorZ6xq9+83Z5+2/aLg3/vZ3/Ket/RcTj39TPf0LqPzNR//kax9oSBnX9k9H6WMMqtiPyv3UBSEFxsPVBqgyI9qBF6aSSMgjE9sU2jQ6oAqQVGPR929GdAOpjEVCOx9sxS/2vgNJGgay/r7c1pGMa1lsKpAJA7Ftz3KSh31zIQsaIAsfYpiDrd/UoPm8puPlPRZ44mHNkWLzVP02MtvsytnjwWf9KSl9F20KrMY7kGBkSb/4rkbWldQLUM0cVcZOzfoq2fPPfb90ciqHrX77+n7RR8sZ2jAiHv/xXt2377bbvcKD++dMv0c4bTR6NOSb6119uQ87tCOu/q37jdpn777RddP67zv/VmtXblW3JORIQf/pVpHj+E1Z/yXT9L/fjOrb4R1X/ZHQ+NqHHdlz+2/8G0OEPe+X/ff50Uz6vuPn0mf/7zP41flvsG3vcLdiPh+b2JTes2M3rn9rXog7sv392PP7+Zl+qNSG5eXhhx+MLUx5eQXk889X3juOhtLGj3d8qKG066eltN+N7GxJz3GSiP0CMDBLbJFw9yju2XTisf/JomLPV94t6c46MjGts798Yd1rabnbLT292b2xfPPM/JsRG99guo4qRUfFY26LTRiT6HA1MOP0Z53/PvBlmbA9Pd/3Lu/5T88Z2jBgat/ynzf9SqK1Tr3++9Z9rG2mOOD599Mee2xRc9Ru3y9x/33kzCs7zGPr5f9Q5MvXznwH0T9n/FGuE7ziOzX/zBaD2wFU8n7PbWfn0zOyWrzVwWLNvjzu22DxpJ4FfnjZssXtks6s7tj6Ie4bOig7bPMVSSPbsTXTI26/W/QLF8ZYtaG0oHNj62yPbzVdMH3+UNkT6eNtGMeGJ31sFmombC8noL47xEreN+xR7i5GBY5uIq0dJxraOLv9JnCa/P9I6IXCNbc3r5cTplf0pus/XmDAw1PpHGNubRBgjHmubVlvv3EoEXdzkrL9TW8b575Q3w4/tTnirf5nXfwrWY0Q6ZDX/cyXH+ueEoraR5ogJ45LbPmtL7OTuvwux+e80jykh1f/Yx78e+pskev4TWj/8TwxLHabYjtB/wwUgXsjunxnzdJK2/cUnRYsN654Tf2FPR15MeSg+zu4Zf/coE2b3est+H4tb6PFlz1ZzcbxL3mMXKG1k+OTx7hRE1SDy8sCa8UdpMya6uEnD2wt+4z8F/V+eTvFaLvvVnNe1maeBOoXYdvUotdhW48X/7S/uG9f/d2rqHbn5i33lM6Tnn/Uf9ONx/FNEQRO3MWEs6PWPNrbXyDlGNNrC1taYUMdNzvqp2nLNfxqxz1vb+K9/U/bfeoxIijzmf67kWf9sMNQ2izliitjntu+xJXIy99+e3Pw31/+8x78aUz//0eifuv/JYaGDEtsx+t95AWi7FIVszla/PZykbZfs/plPigzqD+s7PoG6Z2xz6cjnez6pWsY1RZx//avWJzfs4ceC/9/8mhyljQxv91IPpFd2zyeVzSJJaTMeurhJxdsTXuOfk5p+gfja5oaH7e6f/2oTV1fij21Xj1L0loK9/9VJzVRO7ApEzPLJf+MTIDP29lnU+8+s/gE3tzFhHMj1jzi2X8g5Ruja/NbWeKDGTa76BTptWeY/mXHHdltC1L/J+m89RqRFrvM/V3Kof3aYapt4nTZHTA6H3PY/tsROxv47kJv/xvqf+fh3YernPxr98D8x+umQYjtS/7UXgLbLK37AvEDvW/fsK74OtmNv7ZuW6r4+VrH9l3cmL/liUlQOfldsJi6vVQNiMVGqviI1X+3PV8lER4pfWOLVlEU9l6Z8Tc76q3RC/2/GxxLeTb+0n5KitCHh6G0dbdwk5q1Whyspx7bgdJ9iDzFyYtDYpuDqUereUqDep/r0qYkfCU7se8W2+ATY5Q8AYvl++8onELesczOHMWEIbOofaWyvE2uM+KhtLtoiugd8X5zGzYz0S5i0ZZD/rnkz6NhuSdD6VycH/wn06qPYmcL8z5VE619f1LXNcY4YOba57bu2pEOe/tsSrf+u839C/U9i/HPVXyfl85+A+uF/YvjSUcV2rP4rLwCVBZqL3ygK9M0nVty1tHXT0sOf4uejtJ9kaH9FSiziKjmvmmzPH7+INyoCTXFP0KgmiTNW/G5f+6p1I0kobSyhTBL6TiQcvT3RGTdJeFvSqcOVhPQ3ObDC/lNs9YwRJUPENgVXj5L1lkLLfwPlQLdgSX7712tsl/ePvXziNcCYEAjb+kca22tEGyMe/LfTZpdbsWM/bualv0lbW7753ztvIvM/TP3L2H8CtmNEUmQ9/3Ml3frnlc7a1p4jpolNboeoLemSh/82RO2/6zyGUP+TGP+mfv4TUD/8T4v+OpqxHa3//EAa8IM6itWLTbVCwWbBeJv5ccWPvGC/OnIpx/l5haKNguK95qtjbavjgu+nue60rwV/1S/v7+/VIxX7I/fnyEeq6nmNzaLVR9Vx19sS2sh9JNq0dFb7ufQtpQ0NlX5Xb81xM6y3FFT6neK/gS5uEtAvvG4dn6o/3GJk2NimIPtP80itzbxdbHjz/4QiDtR01NYB8Vn/mlT6Wn3JN2z1ZRU3I/VDmPpXUuynrV9AjpHwePe/S5t4jZBbQ6LSf0Gfoyr9Ri0566dqyzj/zXkz7NhOYfD6N4n6Tx/blX00IP7qn+38j95HIUH98+m/bW2r9p9F/MuocptSW4YkjH79dk1y9V+/XQr+K2tbK4/V+c/Xket/SYzjn5v+CkXbM9QxYkAG1a9gUv43oNbIsGjrn0GHso8cYjsG/1sXgKpCplyahpedcFnanaUNkhrqDlAdQ5g/oqoC4GScvDSPQWrXMeDp2qj6SPX+7V1T2lDQJYC9t9S4Gc5bCrJ+mg6qb+VS1xe7/qowE47PPkaGjW0K6vg3e6TSFpu3FFz9V+s/rddrpuXIcPirf4p+0wSt1AehgpuAz/rXptCpmNyYYmRI/Plf0q2NXluHQqWfkqOyfkrc5Kyfri3n/C/XX5Z23qj6dkT5o9S/XP2n5E0bXR8Nhb/8F6j6rqndpY9Cgvrnz3/Vdk1p9DniUPiN/ybFfhq5TastQxLa/+Z2eftv3i4N/wWlvstCm/+b638bOUeGxa/+03qd5jTm/4Iw+mWm5T+ttgxJt379Mcn63WI7Bv+vxAN+wJPk4+ODXV9fV8+mB/RDP/RD/1SBfuiHfuifKtAP/dAP/VMF+qEf+qF/qkA/9EP/tPUrfwMIAAAAAAAAAAAAAAAAAAAApAsuAAEAAAAAAAAAAAAAAAAAAGQGLgABAAAAAAAAAAAAAAAAAABkBi4AAQAAAAAAAAAAAAAAAAAAZMbV+/v7sXoMAAAAAAAAAAAAAAAAAAAAMuDqyKkeT46Pjw92fX1dPZse0A/90A/9UwX6oR/6oX+qQD/0Qz/0TxXoh37oh/6pAv3QD/3T1o9bwAEAAAAAAAAAAAAAAAAAAGQGLgABAAAAAAAAAAAAAAAAAABkBi4AAQAAAAAAAAAAAAAAAAAAZAYuAAEAAAAAAAAAAAAAAAAAAGQGLgABAAAAAAAAAAAAAAAAAABkBi4AAQAAAAAAAAAAAAAAAAAAZIbiAtCWLa+u2FVtWW6rl85Q2pRsl812V7qGZ+j7FhzWd2W7uzU7VOt80H3cfvtIRf/3d+fcp6eFtHPaMUm6PPvWn559u12W22k2il2/dHzV0pYTLkbCxjYFV4/ij20zVP8bHNbsTrHNaZG2NeTI2LjFttx3d2u1+1IfR9UP/fNPOSbbxsiIWPtP1OaUW2NhnaPmuMlZv422XPPfnDfjj+1mAtW/GlnXf2LemPpodBzmKJKvOm2Rz38KJlv/Kqw9ouVNW7tujjg6PWJUn9sp1P8KV/2G7bL3v3O7NPy3nv9XkOs/J+bxz1p/Zuc/ofTXmaL/Z3qMLUHp8TcK29iOxv9ji82CHReb6glHPGdsflztqxXH/XE1V7Vprju1Y/MVf0TH/P419qvjnL+2WMyt30fw/v5ePapjOm6afisdDcz95r7vJir9+xXvy8a+NscF18bqbyhB7xPGFnyPJ6p9O3jnA1k/TYeayjehR9Nf8euvjtFwPG4xUu5b7ttm3FLa+EKr38Ej1+3GxNV/KmWc1PvEnCND4q/+KfzfLAqN80bgmmv7kPitfxWWY7IcI8Ph038VbW0+c8sHKv2nGLDLUVrc5Kufqi3f/KfkjdiXvO8wYzuF4etfvv6ftQnPW75L9Dxv84X3/DfO/9z2HQrUP7/6603LeGjWNilGlHPE4fCp/4w2t8v9yn1kUVs941e/ebu8/Tdtl4b/3s7/lPW/IuLxb+rnPyH1n5mo/3yNY20Jg7r+yWh9rGEV2xH5L10AkigO1jBIKdpQOo2E9v3LYBLri/dy6Eh9Alget2MfqQj2/gpk/WWyt/fj55iq5G8lvbc4cYBUAKx8E4VTrTMV/eZCFjJGFDjGNgVZv6tH8XlLwc1/KvLEwZwjw+Kt/mlitN2XscWDz/pXUvoq2hZajXHkPrn0gTf/lcja0joB6pmjirjJWT9FW77577duDsXQ9S9f/0/aKHljO0aEw1/+q9u2/XbbdzhQ//zpl2jnjSaPxhwT/esvtyHndoT131W/cbvM/XfaLjr/Xef/as3q7cq25BwJiD/9KlI8/wmrv2S6/pf7cR1b/KOqfzI6H5vQYzsu/8m/AfT50031iMKB/ffPjmv7zr5Ua/rSfv/D+ht73C3Yjweb4zLh/7jbdPdjv/e380jB4Q975f+193Pz6TP/95n92+sbezes2M3rn9pX3kq9bPF3sP4eipuHF3Y8vjB9OGaiP0CMUOK2d2yTcPUo79h24bD+yaNhzlbfL+rNOTIyrrG9f2PcaWm72S0/vdm9sX3xrF9tTwHbMVkVI6PisbZFp41I9DkamHD6M87/nnkzzNgenu76l3f9p+ZNmPM2f7jlP23+l0JtnXr9863/XNtIc8Tx6aM/9tym4KrfuF3m/vvOm1FwnsfQz/+jzpGpn/8MoH/K/qdYI3zHcWz+Gy4AHdj62yPbzVesU780uO3Zm1jx9qt1T707ZnfLU837H9bs2+OOLTZPnieTjsetGdwvEPvR6f2p+yZQ6Jiz21n1/MTslq+1RNEnX542bLF7ZLNCj7gf7KxIhs2TXxe9YvSWTjL6i2O8xF/jPsXeYoQStx5jm4irR0nGto4u/0mcJr8/0johcI1tzevlxOmV/Sm6z9eYODDU+mc9JkcYIx5rm1Zb79xKBF3c5Ky/U1vG+e+UN8OP7U54q3+Z138Kwc7bxier+Z8rOdY/JxS1jTRHTBiX3PZZW2Ind/9diM1/p3lMCan+xz7+9dDfJNHzn9D64X9iWOowxXaE/isuAPHJy91JRFXEXh6YXj8vdvfPjClO5Havt+z3sbjNHF/2bDXfscfZkm/Rhfn9t7/45GqxYaHm1nbHrdNv248XzO/vvu9h0PXJF/Z05AMlLzOPs3vGW0R+MqiPbTfi1//l6RR35bJfzXldm3kaqClxO3Zsu3qUWmyr8eL/9hf3jev/OzX1jtz8xb7yGdLzz/oP+vE4/imioInbmDgW9PpnPSbnHCMabWFra0yo4yZn/VRtueY/jdjnrW38178p+x/6vG1c8pj/uZJn/bPBUNss5ogpYp/bvseWyMncf3ty899c//Me/2pM/fxHo3/q/ieHhQ5KbMfov+IC0A17eKkLeWX3fFKjS9LtUhS7OVv9lk/k5l//qq3j+/2x4P+bvkpmeP/tkt0/88lVwF60OW69frt+rGN+f/d9D4GuTw7rOz45vmdsczruOXu+5xPmZaSnvx2x7UJq+gXia5sbHn67f/6rTVxdocTtuLHt6lGK3lKw9786qZnKiV2BiFk++W98AmTG3j6Luv2Z1T/g5jYmjgO5/lmPyTnHCF2b39oaD9S4yVW/QKcty/wnM+7YbkuI+jdZ/wc4bxuTXOd/ruRQ/+ww1TbxOm2OmBwOue1/bImdjP13IDf/jfU/8/HvwtTPfzT64X9i9NMhxXak/ht/A+jm4TfjtYztHn9Jn9LZLq+4KF7E98T7+ll/lUx+/+2/3BQ+dIjJVTmIXrGZuExXDaxBTiY1x22jv6sfjRj6rde+6xTvs2Nv7RvS6r4aqEDbJ9XX3+ar/fkKqEgS8etZfKRksZ0nWce2icT0S5zuU+whRk5Q4tZbbFNw9Sh1bylQ71N9+tTEjwQn9r1iW3wC7PIHALF8v33lE4hb1rmZobaPhU39sx6TY40RH7XNRVtE94Dvi9O4mZF+CZO2DPLfNW8GHdstCVr/6uTgP4FRztuGYgrzP1cSrX99Udc2xzli5Njmtu/akg55+m9LtP67zv8J9T+J8c9Vf52Uz38C6of/ieFLRxXbsfpvvAB0pjVIlUWcd9BGVcRnrPhtu/aVXZtAalO9f/urVmIRV9t59WV7/vil14hCP+5u/R10DvY9+63vROLmEyvuSNu6Ie3hT/HTYMZPqXT2SaFBcb/XCE8AnL3tIiH9TQ6ssP8UWz1jRAklbvvGNgVXj5L1lkLLfwPlQLdgSX7712tsl/ePvXziNcCYGAjb+mc7JkcbIx78t9Nml1uxYz9u5qW/SVtbvvnfO28i8z9M/cvYfwJhz9tGJuv5nyvp1j+vdNa29hwxTWxyO0RtSZc8/Lchav9d5zGE+p/E+Df185+A+uF/WvTX0YztaP3nB1Jjc1ywBf+3xmZxFM3mK36YFfzAi3WLRsMW1XaXNmLf7Mgrf/VcNOHP2fx42TXt/dsUxzNfHfUt1Ly/v1ePahCO26yfpkPWzzG+v1sfqVDpl45pvzryMDUeN61P+HYtn8p9tfQMhEo/JbaVvp3ZH3leN+KlJAH9wuvW8an6wy1GKHHrL7YpyP7TPFJrM28XG978P6GIAzW6HBkWn/WvSaWv1Zd8w1ZfVnEzUj+EqX8lxX7a+gXkGAmPd/+7tInXCLk1JCr9F/Q5qtJv1JKzfqq2jPPfnDfDju0UBq9/k6j/9LFd2UcD4q/+2c7/6H0UEtQ/n/7b1rZq/1nEv4wqtym1ZUjC6Ndv1yRX//XbpeC/sra18lid/3wduf6XxDj+uemvULQ9Qx0jBmRQ/Qom5X8Dao0Mi7b+GXQo+8ghtmPwv3UB6HLg9aUpoip2yqUZFNK+Wr2hCiTz+8u4dqQuALqPm6afokOXSKZ+c+kjFTr95XFdlnYiyMdNjQlVu/H+QC7rp+mgxm251PXFrr8qzITjs48RWtz6im0K6vg3e6TSFpu3FFz9V+s/rddrpuXIcPirf4p+0wSt1AehgpuAz/rXptCpGJNNMTIk/vwv6dZGr61DodJPyVFZPyVuctZP15Zz/pfrL0s7b1R9O6L8Uepfrv5T8qaNro+Gwl/+C1R919Tu0kchQf3z579qu6Y0+hxxKPzGf5NiP43cptWWIQntf3O7vP03b5eG/4JS32Whzf/N9b+NnCPD4lf/ab1Ocxrzf0EY/TLT8p9WW4akW7/+mGT9brEdg/9X4gE/4Eny8fHBrq+vq2fTA/qhH/qhf6pAP/RDP/RPFeiHfuiH/qkC/dAP/dA/VaAf+qF/2vrpvwEEAAAAAAAAAAAAAAAAAAAAkgAXgAAAAAAAAAAAAAAAAAAAADIDF4AAAAAAAAAAAAAAAAAAAAAyAxeAAAAAAAAAAAAAAAAAAAAAMuPq/f39WD0GAAAAAAAAAAAAAAAAAAAAGXB15FSPJ8fHxwe7vr6unk0P6Id+6If+qQL90A/90D9VoB/6oR/6pwr0Qz/0Q/9UgX7oh/5p68ct4AAAAAAAAAAAAAAAAAAAADIDF4AAAAAAAAAAAAAAAAAAAAAyAxeAAAAAAAAAAAAAAAAAAAAAMgMXgAAAAAAAAAAAAAAAAAAAADIDF4AAAAAAAAAAAAAAAAAAAAAyAxeAAAAAAAAAAAAAAAAAAAAAMkNxAWjLlldX7Kq2LLfVS222y7KNsoHFflpsl83t7taH6pUL7TZXd2smt3JH2n/j4Cna3PUL+r+/O4f1XWPfan/b0I4ptG/96dm3nTkRv37p+KqlLSdcjISNbQquHsUf22ao/jc4rNmdYpvTIm1ryJGxcYttue9U45ZA6uOo+qF//p37rx7/tjEyItb+E7U55dZYWOeoOW5y1m+jLdf8N+fN+GO7mUD1r0bW9Z+YN6Y+Gh2HOYrkq05b5POfgsnWvwprj2h509aumyOOTo8Y1ed2CvW/wlW/Ybvs/e/cLg3/ref/FeT6z4l5/LPWn9n5Tyj9dabo/5keY0tQevyNwja2o/H/2GKzYMfFpnrCEc8Zmx9X+2pFwf64mov11VLfoIK2H5my3eJ43nSzKN5jXttQasMfLcRxzFf8yOi8v79Xj+pU2rT7Kl+XtcnrXPSb37/Pvpuo9O9X89a+qr6tv6EEvU98+OYLWT9Nh5rKN6FH01/x66+O0XA8bjFS7lvu22bcUtr4QqvfwSPX7cbE1X8qZZzU+8ScI0Pir/4p/FeMW2f9kcSE3/pXsV8d57z/FgvejwSdcowMh0//VbS1+cwtH6j0n2LALkdpcZOvfqq2fPOfkjdiX/K+w4ztFIavf/n6f9YmPG/5LmE5RoTCe/4b539u+w4F6p9f/fWmZTw0a5sUI8o54nD41H9Gm9vlfuU+sqitnvGr37xd3v6btkvDf2/nf8r6XxHx+Df185+Q+s9M1H++xrG2hEFd/2S0Ptawiu2I/JcuAEkUB9scpC5BUhlKMVKxHwlNm2bnqt+TYlIbfQLY7aePtjbB3l+BrL9M9vZ+/ByTP998QSoAVr515UQa+s2FLGSMKHCMbQqyfleP4vOWgpv/VOSJgzlHhsVb/dPEaLsvY4sHn/WvpPRVtC20GuPIfXLpA2/+K5G1+cstP6j895ajirjJWT9FW77577duDsXQ9S9f/0/aKHljO0aEw1/+q9u2/XbbdzhQ//zpl2jnjSaPxhwT/esvtyHndoT131W/cbvM/XfaLjr/Xef/as3q7cq25BwJiD/9KlI8/wmrv2S6/pf7cR1b/KOqfzI6H5vQYzsu/8m/AfT50031iLGbhxd2PL6wh8sqMvX9SOzf2I7/124zu+XDxO6N7YtnN+zTZ/7f65/aV6cO7L9/+JaLv9mXao0b5X7mq+8996OnU3/P9+/eN4HDH/bK/2vv56bo8Gf2b69v7IX0bXzMOZGJ/gAxQonb3rFNwtWjvGPbhcP6J4+GOVt9v6jvM24Mgmtsk8atfrU9BQ7rb+xxt2A/iAarYmRUPNa26LQRiT5HAxNOf8b53zNvhhnbw9Nd//Ku/9S8sR0jhsYt/2nzvxRq69Trn2/959pGmiOOTx/9sec2BVf9xu0y99933oyC8zyGfv4fdY5M/fxnAP1T9j/FGuE7jmPz33AB6MDW3x7Zbr5i/fQT9zO75V0tUwbgK/tTVdcvTxu22D2y2dUdWx/EfUVnRadunvqatGdvYpR++9W6F6B4n7KFEs3gfoHajy7v78sjTqFjzm5n1fMTGl86UfRJON8CYvSWTjL6i2O8xF/jPsXeYoQStx5jm4irR0nGto4u/0mcJr8/0johcI1t0rjlOLaMDbX+Hdbs2+OOLTZPxD/wRBgjHmubVlvv3EoEXdzkrL9TW8b575Q3w4/tTnirf5nXfwrWY0Q6ZDX/cyXH+ueEoraR5ogJ45LbPmtL7OTuvwux+e80jykh1f/Yx78e+pskev4TWj/8TwxLHabYjtB/xQUgPnm5O4moitjLA7P30WE/N3+xrzzSnn/WfxiJ7+fnc/X4xBf2dOQFl4fr4+yeiVd9duru9Zb9Pha3x+PLnq3m4n2WTH0BlBf7e34E0omsez+a39+XR6HQ9UlY3/yj0+FK/Pq/PJ3irlz2qzmvazNPAzUlbseObVePUottNV783/7ivnH9f6em3hHyuGU7towNvf5tfz2y3WLDyH/vyjlGNNrC1taYUMdNzvqp2nLNfxqxz1vb+K9/U/bfeoxIijzmf67kWf9sMNQ2izliitjntu+xJXIy99+e3Pw31/+8x78aUz//0eifuv/JYaGDEtsx+q+4AHTDHl7qQl7ZPZ/U2Cepy37ENryINq6kzdjb5wV/7TM7fVDgsL7j6+8Z21w6+/met136mUbOv/5VOynlx/RDvL/6K3DbpSj2c7b63T6Rde9H8/u773sIdH0S2jff6L11IzX9AvG1zQ0Pv90//9Umrq5Q4nbc2Hb1KEVvKdj7X53UTOXErkDErHncEtiMLWNDrn/bJbt/XjD6p51zjhG6Nr+1NR6ocZOrfoFOW5b5T2bcsd2WEPVvsv5bjxFpkev8z5Uc6p8dptomXqfNEZPDIbf9jy2xk7H/DuTmv7H+Zz7+XZj6+Y9GP/xPjH46pNiO1H/jbwDdPPxmvJax3eOvXp/Soe9HXEm/TKTE8v32lRtxy4pvplVfo5qv9ucraaKzxa8w8YrLgsy3NV+B2y6vuKl8ENub72vYqx8NX8Hz5VH5Pjv21r4hre6rgQq0fTKGbz2w8ZZEYvolTvcp9hAjJyhx6y22Kbh6lLq3FKj3qT59auJHghP7XrFtGLd0GGr7WNjUv+2/fKLET+fEHzzKE9srNhNBUJ3sSn/gjTVGfNQ2F20R3QO+L07jZkb6JUzaMsh/17wZdGy3JGj9q5OD/wR69VHsTGH+50qi9a8v6trmOEeMHNvc9l1b0iFP/22J1n/X+T+h/icx/rnqr5Py+U9A/fA/MXzpqGI7Vv+NF4DO+BqkrPdT3ofv/MmhIhgV9w31MpGcseI3+dpXpBUJUA5iPEA2loNYp376+yvp69HNJ1bckbZ1Q9rDn+KnwYyfUunsk6C++cXZ2y4S0t/kwAr7T7HVM0aUUOK2b2xTcPUoWW8ptPw3UA50C5bkt3+9xnZr3OK916u2D4ht/Wt//Vks4hNw/IyI7fnjl9ZOoo0RD/7babPLrdixHzfz0t+krS3f/O+dN5H5H6b+Zew/AdsxIimynv+5km7980pnbWvPEdPEJrdD1JZ0ycN/G6L233UeQ6j/SYx/Uz//Cagf/qdFfx3N2I7Wf34gNTbHBVvwf2tsFkfRbL7ihymxP3INR17Nq+cnaPvZLPi2bH5U7rqg2v98xR+dEPturzvtq/WeBt7f36tHNarjvEiq3q+mkRvXatOmh37j+9P2TUGlXzqm/erIw9R43LQ+4dt58M0XKv1mHWr9F7pyInL9wuvW8an6wy1GKHHrL7YpyP7TPFJrM28XG978P6GIAzW6HBkWn/WviWrc4hhr+7CEqX8lxX7a+gXkGAmPd/+7tInXCLk1JCr9F/Q5qtJv1JKzfqq2jPPfnDfDju0UBq9/k6j/9LFd2UcD4q/+2c7/6H0UEtQ/n/7b1rZq/1nEv4wqtym1ZUjC6Ndv1yRX//XbpeC/sra18lid/3wduf6XxDj+uemvULQ9Qx0jBmRQ/Qom5X8Dao0Mi7b+GXQo+8ghtmPwv3UB6HLg9aUtQtWmXC7FjrIfOZCqwKhvp+zBquA2Fn2h1aELAOnYG8egeu/TctHipr+k+/1p+6ag018e12VpJ4J83LQ+Ubez980Xsn6aDpVvKk/Kpa4vdv2K/NMcn32M0OLWV2xTUMe/2SOVtti8peDqv1r/ab1eMy1HhsNf/aOOW4o+CBXcBHzWvzaFTsXkxhQjQ+LP/5JubfTaOhQq/ZQclfVT4iZn/XRtOed/uf6ytPNG1bcjyh+l/uXqPyVv2uj6aCj85b9A1XdN7S59FBLUP3/+q7ZrSqPPEYfCb/w3KfbTyG1abRmS0P43t8vbf/N2afgvKPVdFtr831z/28g5Mix+9Z/W6zSnMf8XhNEvMy3/abVlSLr1649J1u8W2zH4fyUe8AOeJB8fH+z6+rp6Nj2gH/qhH/qnCvRDP/RD/1SBfuiHfuifKtAP/dAP/VMF+qEf+qetn/4bQAAAAAAAAAAAAAAAAAAAACAJcAEIAAAAAAAAAAAAAAAAAAAgM3ABCAAAAAAAAAAAAAAAAAAAIDNwAQgAAAAAAAAAAAAAAAAAACAzrt7f34/VYwAAAAAAAAAAAAAAAAAAAJABV0dO9XhyfHx8sOvr6+rZ9IB+6Id+6J8q0A/90A/9UwX6oR/6oX+qQD/0Qz/0TxXoh37on7Z+3AIOAAAAAAAAAAAAAAAAAAAgM3ABCAAAAAAAAAAAAAAAAAAAIDNwAQgAAAAAAAAAAAAAAAAAACAzcAEIAAAAAAAAAAAAAAAAAAAgM3ABCAAAAAAAAAAAAAAAAAAAIDNwAQgAAAAAAAAAAAAAAAAAACAz9BeAtkt2dXXFrpbbakWTw/qufP20aNrpOG9/t2aHal3Jli3r++WL5a7dOazZXeu960txHJQ2nO2y+3U9I+qvcPOWdtxSv0j+j03P/jfkTez6qXEbLkbGj39Xj+KPbTNU/xsQa+IZQ46MjevY1u67u7XafamPo+qH/vmnHNttY2RErP0PPicYAescNcdNzvpttOWa/+a8GX9sNxOo/tXIuv4T88bUR6PjMEeRfNVpi3z+UzDZ+ldh7REtb9radXPE0ekRo/rcTqH+V7jqN2yXvf+d26Xhv/X8v4Jc/zkxj3/W+jM7/wmlv84U/T/TY2wJSo+/UdjGdjT+HyX2x9WcHcVLxbLYVOsv7Fdz/tr8uNpXK46b40LTVsl+dZzz7RcLvp/5ir/jhc2CHeu7Ec+b7+WP9/f36lE3pd4FV6mn3aY47pY2CmPrd/O2jBn5uFXr6v1Y7duhn3wg66fpUGPOm/j1V8doOB7X/Bf7lvu2GduUNr7Q6nfwyHW7MXH1n4pcN805MiT+6p/C/82i0DhvBG6lP5KY8Fv/KjrGdhVyjAyHT/9VtLX5zC0fqPSfYsAuR2lxk69+qrZ885+SN2Jf8r7DjO0Uhq9/+fp/1iY8b/kuYTlGhMJ7/hvnf277DgXqn1/99aZlPDRrmxQjyjnicPjUf0ab2+V+5T6yqK2e8avfvF3e/pu2S8N/b+d/yvpfEfH4N/Xzn5D6z0zUf77GsbaEQV3/ZLQ+1rCK7Yj8ly4AXQKgMksyqQyI9qBF6aSScr9i+2IbUwcUnRVmkKQFACUB5Dbeit2g+vt6W0M6bnU8Oe3bEyT/if1vzps09JvjNmSMKBg0/l09is9bCm7+U5FrojlHhsVb/dPEaLsvY4sHn/WvpPRVtC20GuNIjpEh8ea/Elmbv9zyg8p/bzmqiJuc9VO05Zv/fuvmUAxd//L1/6SNkje2Y0Q4/OW/um3bb7d9hwP1z59+iXbeaPJozDHRv/5yG3JuR1j/XfUbt8vcf6ftovPfdf6v1qzermxLzpGA+NOvIsXzn7D6S6brf7kf17HFP6r6J6PzsQk9tuPyX7oF3M3DCzseX9jDTbWizeEPe+X/ff7UbHDz6TP/95n9a/y22Df2uFuwH9o3UNN+v6E4rH9yVXO2+v6lWiNDadOXQfT39LabG1bs5vVP7StvB/bfPzteW/5m4XpuGIx5k4v+ADFCie1h8t/Vo7xj2wVVTTTnyMi4xvb+jXGnpe1mt/z0ZvfG9sWzMh7mq+/ZxoPt2D7EuGmFx9oWnTYi0edoYMLpzzj/e+bNMGN7eLrrX971n5o3rud/Q+GW/7T5Xwq1der1z7f+c20jzRHHp4/+2HObgqt+43aZ++87b0bBeR5DP/+POkemfv4zgP4p+59ijfAdx7H5r/8NIB3FQDZnt7Pq+YnZLV9r4LBm3x53bLF5Ik4CD2z97ZHt5is2Th05FfEfHUHb0Wb3yGa1+wHa3+91YP19vG2jmPB8edqwRdEnd2x9EPeDnRXJsHkaxVwamombC8no74pbbzFCie3h89/VoyRjW0eX/yQodTNCXGNb83o5cXplf4ru27M3UUjefrXuMyviRbweKdT65zC2RxcjHmtbuDlBIujiJmf9ndoyzn+nvBl7bk/EW/3LvP5TsB4j0iGr+Z8rOdY/JxS1jTRHTBiX3PZZW2Ind/9diM1/p3lMCan+xz7+9dDfJNHzn9D64X9iWOowxXaE/ttfAOrB9hefFC02rHtOzCdPd6dOrIroywMbJY62v/j7c///7jhgTZsvT8Xt9c7LfjXn8TEjFLyI9DvDB8D7Z8akk/sv7OnIB0peZh5n94y3iPxkUKfDlfj1u8ctBUpsjx3/rh6lFttqvPhPqZs5cfMX+8pnSM8/6z/ox+P4p4iCJrvXW/b73L97tpqLeFnyShMj9PpHG9tr5Bwj3ucEqaGOm5z1U7Xlmv80Upvb+q9/U/bfeoxIijzmf67kWf9sMNQ2izliitjntu+xJXIy99+e3Pw31/+8x78aUz//0eifuv/JYaGDEtsx+j/cBaDtkt0/80mRUf0Ne3ipd+Qru+eTquGLRDU4dw5QlDYl4utvmwWfAP/zX20CoCIW/e5sl2IAnLPV7+bJ/WF9xyfH94xtLknyfM8nzMtIT381OlxJTb+AHrcUKLE9bvy7epSitxTs/afXxHwQMcsn/41PgMzY22fecewzq3/Abf71r1ot4dv9EG3svl49FOT6Rx7bT+QcIyHmBGlBjZtc9Qt02rLMfzLjju22hKh/k/XfeoxIi1znf67kUP/sMNU28TptjpgcDrntf2yJnYz9dyA3/431P/Px78LUz380+uF/YvTTIcV2pP7bXwAqvg62Y2/tm5bqvj5Wsf2XdyYv+WJSVA5+V2wmLq9VA6LuJPDm4TfjtZQ3+zXsp4ROV/9+dAxQlDZtLO/3Oqh+R2/rbJdXPND5wL5v3eux+vrbfLU/XwEVSSJ+PYuPlCy28yStDlcS0y9xilsPMXKCEtuDxr+rR6l7S4Fat1xqYiz0im3xCbDLHwDE8v32lU8gblnnZtZfrx4Gm/pnPbbHGiM+atsAc4KYcRo3M9IvYdKWQf675s1oc3sCQetfnRz8J9Crj2JnCvM/VxKtf31R1zbHOWLk2Oa279qSDnn6b0u0/rvO/wn1P4nxz1V/nZTPfwLqh/+J4UtHFdux+m9/AejmEyvuWtq6aenhT/HzUdpPMrS/IiUWcZWcV022549fTCPBwINkadiCdX37i9LmwoEVXeSqYwj9jt6eKAd23iMbxcBeFBG+l/ZOIjwB6NThSkL6m7TitmeMKKHE9hDx7+pRst5SsKtbdjUxMrzGdnn/2MsnXmes+L3X9qedbCZXA2Fb/2zH9mhjxIP/g84JIsN+3MxLf5O2tnzzv3feROZ/mPqXsf8Eep//xUzW8z9X0q1/Xumsbe05YprY5HaI2pIuefhvQ9T+u85jCPU/ifFv6uc/AfXD/7Tor6MZ29H6zw9Ew/7Ij+/IK3X1/MJmwdez+XHFj7xgvzpyKcf5eYWijQLeAUfeAfydTmyOC7bg/9bYLPh+mvv2xfv7e/WohUKPRFcb8VpDV6WVt693p9xH4+t39Valr4nQxrdr9Uu5r5bmgVDpN+tQ67+gy5sE9LvGLSlGKLE9dvzTPFJrM28XG978P6GIAzX6sWVIfNa/JpW+Vl/yDVt9WcXNSP0Qpv6VFPtp6xeQYyQ83v3v0iZeI+TWkKj0X7CY/3GMWnLWT9WWcf6b82bYsZ3C4PVvEvWfPrYr+2hA/NU/2/kfvY9Cgvrn03/b2lbtP4v4l1HlNqW2DEkY/frtmuTqv367FPxX1rZWHqvzn68j1/+SGMc/N/0VirZnqGPEgAyqX8Gk/G9ArZFh0dY/gw5lHznEdgz+SxeATgcuL81CVnbCZWl3ljZIaqg6QPX+oeJEFwDlsesLt6C7TRXgDR1yW1UfxaP/spi9rQZA5WJq193PIZH103RQfSuXur7Y9dPiVmAfI7TYHj/+zR6ptMXmLQVX/9X6T+v1mmk5Mhz+6p+i3zRBK/VBqOAm4LP+tSl0KiY3phgZEn/+l3Rro9fWoVDpp+SorJ8SNznrp2vLOf/L9ZelnTeqvh1R/ij1L1f/KXnTRtdHQ+Ev/wWqvmtqd+mjkKD++fNftV1TGn2OOBR+479JsZ9GbtNqy5CE9r+5Xd7+m7dLw39Bqe+y0Ob/5vrfRs6RYfGr/7RepzmN+b8gjH6ZaflPqy1D0q1ff0yyfrfYjsH/K/GAH/Ak+fj4YNfX19Wz6QH90A/90D9VoB/6oR/6pwr0Qz/0Q/9UgX7oh37onyrQD/3QP2399r8BBAAAAAAAAAAAAAAAAAAAAKIGF4AAAAAAAAAAAAAAAAAAAAAyAxeAAAAAAAAAAAAAAAAAAAAAMgMXgAAAAAAAAAAAAAAAAAAAADLj6v39/Vg9BgAAAAAAAAAAAAAAAAAAABlwdeRUjyfHx8cHu76+rp5ND+iHfuiH/qkC/dAP/dA/VaAf+qEf+qcK9EM/9EP/VIF+6If+aevHLeAAAAAAAAAAAAAAAAAAAAAyAxeAAAAAAAAAAAAAAAAAAAAAMgMXgAAAAAAAAAAAAAAAAAAAADIDF4AAAAAAAAAAAAAAAAAAAAAyAxeAAAAAAAAAAAAAAAAAAAAAMgMXgAAAAAAAAAAAAAAAAAAAADJDfwFou2RXV1fsarmtVjQ5rO/K10+Lpl2b7bK2jVju1uxQvRYVBv0CSUurbfv1u7Wd0nMfK/qo7767cPN2y5b1bfii28zUb+NC19GEsp3rvsdBF3+Sf9Vi1mKhn5B/3jms2V3r+OoL6VA81I0YcDlGc91IKP4d4s91TIwLB4/IeZOG/64+msfkfOOfMia4jxsj4JD/Zv8VfRDd/LdfjEr6ojS3C3f9VG/j7qOeNSqT+Q9FxxmHeaNubh0NDvXvRJe2tvc+z1u9Yq3fnDdS3GvaRUEg/5PBVX/ndvnO/wSd82Yf59YD4Wv+L8d/Gv676heYxnZzH42Ptf7Mxv8g/ieU/wWG+uerRlDOEYPOkY4S++Nqzo7ipWJZbKr1F/arOX9tflztqxXHzXGhaVtnsxD7XPDWJ6rt5iv+rsPz/v5ePapj1n9u03HcktbNotjf/NJp3exXxznv48WC93XrfXrvu0Klv4+39SblMdb3IzD325Co9NN0tCl1ydvJ6+z3HQ51/FeY4s/BQ5p+Sv75oVN/jTIn6nVLhZ+6MSSd9c/yGCl1I434d4s/17o5JrL+UrvsUXMdlXbepOB/n/Gve0z227c+8Bn/hRZDzaC0GRLv+g1zMqnNKbZG6hO/+V/1W0T+mvCpn+ZtXH0UxH+hWSzKDWLXL6DooKGdN3bMrYckiP4Bzlt94VO/0FZvWmptzm2KdZHEvmBo/2PDr37zdpQYGRKf+l3nzdoaOQAq/d7m/6ftajmQgv+u+s9x05HzlD4aEr/6ZbSxHfH4H9J/Fdo+GgDX+ufaR1L8U84RA86RhH7pAtBFXNURkqhSbPuAzEaq9xdbAJj1E465SHC5jwpzSQlSvrfYvniv+ja9931B1u/qrQLFcY7ptQp1AWih6W8jlO1c9+0Jvf6O+OO4xJoSbYx0558vSP5XOWE6DspxpxD/bsfoWDcijH+3+PNYNwckaP2r+qSz/6Lz328cG+tkNvFP0MrxNm54wpt+kv/q/Y1ZI3zmf+y1ToU//TRvY+sj//7nMv+xr38yuvGv3K/oz+K9RqyH/vV3aCPVyGEJ6r9Cb7bj35l4YpuCT/1O2xFrayj86Xc9/yGcIwRE1u+qQ91Xxu2i899Vf8A+CohP/TK62C77QbxHsd+oxv+Q/qvQ9dEwuNU/xz6izH8GniMJ/dIt4G4eXtjx+MIebqoVbQ5/2Cv/7/OnZoObT5/5v8/sX+03oW5Y0eT1T+0rbwf23z873m9/sy/VmrEx6q+Oeb76rj/m/RvjqqQ+mt1ye3dvbF8913FYf2OPuwX7oTqInvvuxNlbPZd9EfotYtp94pOQ+3ahM/4CUNdvzr9hOax/8sifs9X37qj1UjdGx/EYe9aNmOLfKf4C1M3UoeaNIBr/XX0MOSYPTGz1d2ic9JP8T2P+60bac7v+ULzNu4/ymP/4q3+68W/oubUtffSPdt7qEd/jXzRzGyLB/E8EV/19+i2mGHHS4ThvtjlHGATn87h+c7to/HfWTxnbE5j/ejyPT3L8D+q/THT5zzHWP9c+osx/Rpgj6X8DSEdxkHN2O6uen5jd8rXdfHnasMXukc2u7tj6IO6HOSuSYfMUTwCY2bM34dLbr9Y9DYWmsoWuL8ogeWV/LhVQ5rBm3x53bLF5UidTn32b6OFtkwNbf3tku/mKXXKb0G/RodJBRJPMF3rsOySm+DtR5PHFR/v7VEaqv8FpgvLDaWLfJIX4dzxGp7qRgv9EvNXNCDHWMRWUvInQf1cfXcdkp76NGMqY0HvciBCi/0nOf0kxmuLcjggxR83eJtpH3mpUxjEioRn/qHPrFBnzvDU6OuY2OY5/gpxjOwhTP//xeW7tCScdJfZzu4zOf4hje/Tz3x7+N0l0/A/sf5MI85+Cax9pXm/MfyhtPGN/AagXX9jTkRcB3oWPs3v2zNekOmHYvd6y38fiFnp82bPVXGhasuIC4M1f7Ct38vln/Qe+eMH/KRR3s/3FB4XFhmlrYo99h4Ufw90p8avC/vLA2rnd2W9RQNPRDR/c7rkf0uDuY99hMcYf58vTyb9y2a/m/LxmRjiZiV9/g+0vfoy8Rv3tr0LFH/8hjzEx/yePro4Z0OZNpv47jcmOfRsplDHBfdyIHLL/qc1/7WI0hbHNDhv9NG/T6iP/NSq/GFGgGf8oc+tUSfe81RfmuU224x8n59j2R6bzXxcCnFuPC2X8z9t/89iez99/O5ng+C+wmttll/8GKPOfwedIjP0vE9KoLpLd0AsAAAAASUVORK5CYII=;" parent="1" vertex="1">
          <mxGeometry x="198" y="630" width="773.19" height="84.56" as="geometry" />
        </mxCell>
        <mxCell id="z2CHQpgufFifvv1Qfl7E-51" value="&lt;span style=&quot;font-size: 18px;&quot;&gt;Amostragem&lt;/span&gt;" style="text;html=1;align=right;verticalAlign=middle;whiteSpace=wrap;rounded=0;fontFamily=Trebuchet MS;fontSize=18;" parent="1" vertex="1">
          <mxGeometry x="325" y="488.38" width="130" height="34.5" as="geometry" />
        </mxCell>
      </root>
    </mxGraphModel>
  </diagram>
</mxfile>
